<?xml version="1.0" encoding="UTF-8" standalone="no"?>
<!-- Created with Inkscape (http://www.inkscape.org/) -->

<svg
   width="340mm"
   height="130mm"
   viewBox="0 0 340 130"
   version="1.1"
   id="svg12507"
   inkscape:version="1.2.1 (9c6d41e410, 2022-07-14)"
   sodipodi:docname="joulesbox_color.svg"
   xmlns:inkscape="http://www.inkscape.org/namespaces/inkscape"
   xmlns:sodipodi="http://sodipodi.sourceforge.net/DTD/sodipodi-0.dtd"
   xmlns="http://www.w3.org/2000/svg"
   xmlns:svg="http://www.w3.org/2000/svg">
  <sodipodi:namedview
     id="namedview12509"
     pagecolor="#ffffff"
     bordercolor="#000000"
     borderopacity="0.25"
     inkscape:showpageshadow="2"
     inkscape:pageopacity="0.0"
     inkscape:pagecheckerboard="0"
     inkscape:deskcolor="#d1d1d1"
     inkscape:document-units="mm"
     showgrid="false"
     inkscape:zoom="0.77593294"
     inkscape:cx="628.27594"
     inkscape:cy="141.76483"
     inkscape:window-width="1860"
     inkscape:window-height="1011"
     inkscape:window-x="60"
     inkscape:window-y="32"
     inkscape:window-maximized="1"
     inkscape:current-layer="layer2" />
  <defs
     id="defs12504" />
  <g
     inkscape:groupmode="layer"
     id="layer2"
     inkscape:label="Layer 2">
    <path
       style="fill:#808000;fill-opacity:1;stroke:none;stroke-width:0.284095;stroke-dasharray:none;stroke-opacity:1"
       d="M 159.09698,43.137833 222.6229,23.416589 245.67978,40.091548 237.6434,111.8688 178.62723,127.41384 161.57782,114.61535 Z"
       id="path2059-6"
       sodipodi:nodetypes="ccccccc" />
    <path
       style="fill:#bfd4ea;fill-opacity:1;stroke:#578eaa;stroke-width:0.264583;stroke-opacity:1"
       d="m 162.40818,44.673559 60.26227,-18.374098 21.67722,17.039847 -9.05461,66.944882 -55.61711,14.03998 -16.44415,-11.45897 z"
       id="path2059" />
    <path
       id="path6674-4"
       style="font-style:oblique;font-size:50.8px;font-family:PASTI;-inkscape-font-specification:'PASTI, Oblique';fill:#808000;stroke-width:0.264583"
       d="m 27.811198,70.833898 c -1.44731,0.0626 -3.091273,-0.22554 -4.286638,0.80987 -1.153908,0.81551 -1.565828,2.23588 -1.733839,3.5687 -1.965667,9.72052 -3.854459,19.459868 -5.885605,29.165032 -0.312231,0.91683 -1.344566,1.26137 -2.229806,1.11807 -1.87203,0.0757 -3.8005921,-0.22746 -5.6316901,0.2563 -1.3369553,0.50973 -1.9011513,1.98077 -2.0480453,3.29751 -0.315768,1.12083 -0.316352,2.66546 0.882029,3.26499 1.5644563,0.67179 3.3051494,0.25568 4.9499494,0.36458 3.13578,-0.002 6.485128,0.31295 9.345242,-1.2505 2.906082,-1.51111 4.603347,-4.65463 5.059661,-7.81289 1.979226,-9.897374 3.991266,-19.789712 5.922496,-29.695722 0.17878,-1.49274 -1.01062,-3.05766 -2.57151,-3.02741 -0.58845,-0.0591 -1.181126,-0.0644 -1.772244,-0.0585 z" />
    <path
       id="path6676-5"
       style="font-style:oblique;font-size:50.8px;font-family:PASTI;-inkscape-font-specification:'PASTI, Oblique';fill:#808000;stroke-width:0.264583"
       d="m 49.133462,70.845618 c -2.5299,0.057 -5.07991,-0.14841 -7.5957,0.17166 -3.08546,0.44795 -6.01103,2.35915 -7.29181,5.25948 -1.18553,2.56382 -1.33761,5.42341 -1.99674,8.13522 -1.36705,6.998148 -2.84564,13.976268 -4.125514,20.990282 -0.299997,2.39946 0.602484,5.15538 2.878904,6.29297 2.73161,1.46386 5.92477,0.94376 8.89375,1.04158 3.05823,0.0332 6.3451,0.17324 9.05642,-1.49085 2.70989,-1.5904 4.21974,-4.63228 4.64955,-7.66259 1.63083,-8.276104 3.3407,-16.538294 4.90079,-24.827242 0.35032,-2.33314 -0.17736,-5.06737 -2.23879,-6.48082 -2.05484,-1.48543 -4.70824,-1.46304 -7.13086,-1.42969 z m -3.91992,7.27343 c 0.88029,0.0985 1.79656,-0.0676 2.66211,0.0762 0.76032,0.68812 0.12641,1.79151 0.0587,2.63596 -1.50992,7.687508 -3.03334,15.373508 -4.59773,23.049582 -0.25604,0.95108 -1.17344,1.78151 -2.20566,1.54972 -0.81025,-0.0878 -1.75466,0.24216 -2.46778,-0.1945 -0.45491,-0.91675 0.10498,-1.91581 0.19282,-2.85929 1.53276,-7.621394 2.99124,-15.255954 4.59585,-22.855302 0.25313,-0.74264 0.92279,-1.44796 1.76172,-1.40235 z" />
    <path
       id="path6678-0"
       style="font-style:oblique;font-size:50.8px;font-family:PASTI;-inkscape-font-specification:'PASTI, Oblique';fill:#808000;stroke-width:0.264583"
       d="m 81.391272,70.851478 c -1.3397,-0.11212 -2.80433,0.16704 -3.72078,1.23193 -1.21751,1.23853 -1.10917,3.09631 -1.53421,4.66736 -1.81471,9.0694 -3.57891,18.151008 -5.44813,27.208132 -0.30207,1.01786 -1.36294,1.72683 -2.42063,1.46383 -0.74304,-0.0536 -1.57168,0.20937 -2.25125,-0.14938 -0.50674,-0.96386 0.11052,-2.01508 0.19145,-3.00906 1.87253,-9.472924 3.80922,-18.934842 5.62105,-28.418672 0.16193,-1.60933 -1.29065,-3.10195 -2.9082,-2.97657 -1.45566,-0.0232 -2.93134,-0.1017 -4.37695,0.0762 -1.72695,0.37187 -2.90507,2.02724 -3.03317,3.73842 -2.00749,10.17158 -4.08761,20.330398 -6.03129,30.513532 -0.34493,2.36644 0.42891,5.13805 2.64926,6.3444 2.63351,1.53737 5.79203,1.0695 8.70074,1.1428 3.16944,0.008 6.56959,0.25675 9.41563,-1.41493 2.76338,-1.55988 4.31089,-4.62991 4.73825,-7.68807 1.9646,-9.902054 3.95859,-19.799492 5.8848,-29.708422 0.17816,-1.49051 -1.03244,-3.02989 -2.58364,-2.9844 -0.96107,-0.0833 -1.92944,-0.0494 -2.89293,-0.0371 z" />
    <path
       id="path6680-3"
       style="font-style:oblique;font-size:50.8px;font-family:PASTI;-inkscape-font-specification:'PASTI, Oblique';fill:#808000;stroke-width:0.264583"
       d="m 93.733072,70.851478 c -1.23348,-0.10616 -2.6019,0.10684 -3.4322,1.11918 -0.99623,1.02193 -1.16816,2.44215 -1.41159,3.73934 -2.21926,11.220308 -4.50409,22.429638 -6.66378,33.660442 -0.20237,1.80614 1.4836,3.51708 3.30015,3.30621 4.36062,-0.009 8.72611,0.0686 13.083722,-0.0446 1.436026,-0.16761 2.557876,-1.45603 2.656896,-2.87818 0.31637,-1.17492 0.66626,-2.68589 -0.35742,-3.625 -1.333576,-1.02237 -3.096346,-0.49444 -4.637098,-0.6515 -0.98621,-0.033 -2.04196,0.1606 -2.98204,-0.12194 -0.0997,-0.81579 0.24293,-1.54296 0.3326,-2.32982 1.91503,-9.662414 3.89609,-19.313462 5.751392,-28.986582 0.21489,-1.52305 -0.93079,-3.25519 -2.580792,-3.16092 -1.01796,-0.0632 -2.04042,-0.0395 -3.05984,-0.0266 z" />
    <path
       id="path6682-6"
       style="font-style:oblique;font-size:50.8px;font-family:PASTI;-inkscape-font-specification:'PASTI, Oblique';fill:#808000;stroke-width:0.264583"
       d="m 124.35026,70.857338 c -3.81477,-0.01 -7.63588,-0.0438 -11.44858,0.0277 -2.10848,0.24412 -3.70397,2.20296 -3.83476,4.27037 -2.25744,11.3913 -4.5838,22.771398 -6.77538,34.174162 -0.20075,1.85026 1.53315,3.59727 3.39661,3.34564 4.30127,-0.004 8.60733,0.0704 12.90563,-0.0449 1.48644,-0.16651 2.6628,-1.48292 2.75579,-2.96214 0.32161,-1.18157 0.63084,-2.76232 -0.4915,-3.62723 -1.31389,-0.96321 -3.02888,-0.4646 -4.53398,-0.61359 -0.9829,-0.0264 -2.03238,0.15018 -2.97188,-0.12079 -0.0597,-1.04771 0.35805,-2.08908 0.50692,-3.12992 0.45445,-2.08171 0.74841,-4.182144 1.37004,-6.206014 0.71037,-0.85443 1.96639,-0.47618 2.9347,-0.5682 1.40276,0.0716 3.20222,0.14242 4.03468,-1.23317 0.68652,-1.12411 0.73671,-2.49166 0.97788,-3.75332 0.0847,-1.18805 -0.93718,-2.28303 -2.14367,-2.20989 -1.37363,-0.17594 -2.80994,0.17406 -4.14735,-0.1905 -0.26726,-0.73026 0.19389,-1.532238 0.25641,-2.281318 0.52643,-2.38655 0.86872,-4.82535 1.54633,-7.17181 0.64711,-0.77156 1.7899,-0.37496 2.66718,-0.48058 1.64869,-0.0291 3.35679,0.19627 4.95977,-0.27137 1.30539,-0.51914 1.90933,-1.93645 2.05583,-3.24587 0.32887,-1.12777 0.34178,-2.67228 -0.83903,-3.31077 -0.97991,-0.50538 -2.11523,-0.43112 -3.18164,-0.39648 z" />
    <path
       id="path6684-1"
       style="font-style:oblique;font-size:50.8px;font-family:PASTI;-inkscape-font-specification:'PASTI, Oblique';fill:#808000;stroke-width:0.264583"
       d="m 143.52409,70.845618 c -3.35895,0.0595 -6.90648,-0.3486 -10.04309,1.13549 -2.63541,1.10743 -4.47529,3.64646 -4.99542,6.42344 -0.33186,2.25391 -1.05049,4.44982 -1.17148,6.73275 -0.12654,1.67224 0.39537,3.391408 1.60715,4.582398 3.17284,3.0788 6.42982,6.07523 9.56573,9.19428 1.03822,1.156484 0.42704,2.758074 0.11972,4.074754 -0.18147,0.91515 -0.29987,2.25218 -1.46152,2.40767 -1.02662,0.11985 -2.07286,-0.005 -3.09992,0.0346 -0.68743,-0.12485 -0.41101,-1.02495 -0.43849,-1.51719 0.19567,-1.55409 0.59878,-3.43557 -0.63315,-4.688474 -1.12445,-1.08403 -2.7951,-0.56507 -4.18625,-0.71218 -1.55939,-0.0937 -3.25154,0.33931 -4.22893,1.641854 -1.06153,1.40613 -1.17186,3.25234 -1.44842,4.93079 -0.24604,2.26807 0.45332,4.83917 2.47796,6.11626 2.57655,1.77115 5.85341,1.47804 8.8193,1.47659 3.37716,0.0474 7.00592,0.18842 10.00529,-1.63229 2.45044,-1.473 3.85609,-4.22968 4.197,-7.00805 0.45642,-2.44177 1.41035,-4.909384 0.9946,-7.423214 -0.57359,-2.36326 -2.78088,-3.72549 -4.35807,-5.38574 -2.31469,-2.2426 -4.72049,-4.40197 -6.94272,-6.733398 -0.89433,-1.46506 -0.034,-3.17599 0.16274,-4.71276 0.0883,-0.81794 0.6836,-1.77885 1.55406,-1.6642 1.02037,-0.0328 2.07601,-0.0907 3.07617,0.0586 0.6039,0.73433 0.16268,1.78876 0.11757,2.64729 -0.24574,1.56013 0.29941,3.54927 1.98204,4.03826 1.25015,0.32904 2.55501,0.0225 3.8269,0.15922 1.59567,0.0572 3.19813,-0.81493 3.85322,-2.3001 0.66436,-1.47318 0.76059,-3.1251 0.97027,-4.70678 0.15796,-2.28625 -0.79367,-4.76834 -2.88042,-5.9054 -2.22285,-1.35049 -4.93363,-1.2927 -7.44184,-1.26452 z" />
    <path
       id="path6687-3"
       style="font-style:oblique;font-size:50.8px;font-family:PASTI;-inkscape-font-specification:'PASTI, Oblique';fill:#808000;stroke-width:0.264583"
       d="m 266.45206,71.543538 c -3.14883,0.01817 -6.30488,-0.0725 -9.44922,0.05273 -2.07401,0.329734 -3.57534,2.291724 -3.69921,4.333286 -2.24911,11.381385 -4.56945,22.751075 -6.7581,34.142866 -0.19686,1.80145 1.4836,3.50912 3.29676,3.29656 4.36197,-0.016 8.73011,0.10068 13.08806,-0.0787 3.37801,-0.2926 6.8977,-1.85944 8.58106,-4.94599 1.3206,-2.40281 1.37853,-5.21816 2.04612,-7.82614 0.48306,-2.471521 0.16399,-5.323131 -1.72442,-7.156071 -0.19509,-0.31598 -0.90258,-0.62236 -0.87099,-0.83644 3.27628,-1.6214 5.41734,-5.03441 5.89948,-8.60919 0.42375,-2.26559 1.22897,-4.546591 0.95623,-6.877173 -0.28593,-2.106069 -1.81521,-3.922249 -3.80509,-4.641031 -2.38468,-1.003936 -5.02981,-0.869977 -7.56068,-0.854702 z m -1.78906,7.226563 c 1.01318,-0.110557 2.247,0.30906 2.4668,1.429683 0.24126,1.82919 -0.50934,3.58361 -0.79493,5.36329 -0.48074,1.81431 -2.13233,3.49147 -4.12126,3.30743 -0.48901,0.079 -1.25265,-0.11624 -1.06588,-0.76953 0.10368,-1.7669 0.68453,-3.46396 0.96839,-5.20587 0.2728,-1.25283 0.34419,-2.60991 1.04883,-3.732425 0.3855,-0.389961 0.98799,-0.390484 1.49805,-0.392578 z m -2.63672,17.351563 c 1.26264,0.16534 1.83037,1.55377 1.62003,2.69004 -0.15708,1.506726 -0.54551,2.983296 -0.85636,4.462296 -0.51811,1.63636 -2.07428,3.04245 -3.87141,2.85341 -0.4531,0.008 -1.34217,0.16329 -1.23753,-0.551 0.0456,-1.62951 0.59754,-3.19241 0.84272,-4.79718 0.29434,-1.388006 0.39974,-2.762186 0.97521,-4.040376 0.59171,-0.72059 1.68908,-0.62393 2.52734,-0.61719 z" />
    <path
       id="path6689-2"
       style="font-style:oblique;font-size:50.8px;font-family:PASTI;-inkscape-font-specification:'PASTI, Oblique';fill:#808000;stroke-width:0.264583"
       d="m 295.34269,71.537679 c -2.5019,0.05529 -5.02388,-0.146158 -7.51156,0.174514 -3.08433,0.453947 -6.0038,2.370299 -7.28156,5.270139 -1.18718,2.59506 -1.3438,5.481192 -2.00994,8.221572 -1.36578,6.96414 -2.82993,13.91157 -4.10278,20.892316 -0.3079,2.4074 0.60853,5.16936 2.89607,6.30278 2.72913,1.45052 5.91192,0.93344 8.87422,1.03182 3.08472,0.0345 6.41024,0.17419 9.12983,-1.53745 2.70272,-1.61738 4.17142,-4.68202 4.59569,-7.71602 1.624,-8.242816 3.32775,-16.471576 4.88124,-24.727202 0.35152,-2.334946 -0.17965,-5.073456 -2.24465,-6.484735 -2.0854,-1.498846 -4.77401,-1.459818 -7.22656,-1.427734 z m -3.61719,7.294922 c 0.82145,0.05831 1.68193,-0.09402 2.48242,0.06836 0.73294,0.742609 0.0988,1.852004 0.0229,2.731164 -1.54232,7.70761 -3.01991,15.43212 -4.64479,23.120685 -0.29817,0.92153 -1.25697,1.60965 -2.23796,1.36941 -0.77504,-0.0728 -1.62493,0.20683 -2.34328,-0.14509 -0.52142,-0.95178 0.10227,-2.02755 0.18356,-3.02079 1.52465,-7.575195 2.97839,-15.162165 4.56644,-22.717485 0.26408,-0.81767 1.05227,-1.582231 1.9707,-1.406253 z" />
    <path
       id="path6691-0"
       style="font-style:oblique;font-size:50.8px;font-family:PASTI;-inkscape-font-specification:'PASTI, Oblique';fill:#808000;stroke-width:0.264583"
       d="m 311.95792,71.537679 c -1.33466,0.08121 -2.72575,-0.190096 -4.02237,0.198034 -1.44337,0.496084 -2.37404,2.211135 -1.77197,3.665561 1.1814,5.58909 2.39637,11.17114 3.53458,16.76922 -0.24366,0.91711 -0.97827,1.60776 -1.37649,2.4617 -3.21918,5.30848 -6.48192,10.593696 -9.65672,15.926966 -0.63226,1.38826 0.77191,2.9418 2.20192,2.7969 1.87499,-0.0321 3.84175,0.27428 5.64627,-0.36265 1.35702,-0.50992 2.2564,-1.72841 2.82402,-3.01017 1.12489,-2.02808 2.24978,-4.05616 3.37467,-6.08424 0.40563,2.49827 0.70223,5.02436 1.22487,7.49705 0.63281,1.66905 2.64775,2.12066 4.24842,1.9778 1.65614,-0.0651 3.63341,0.37694 4.97007,-0.8811 0.80063,-0.75312 0.86052,-1.95371 0.48658,-2.92866 -1.1723,-5.62003 -2.35353,-11.238226 -3.50611,-16.862346 0.61923,-1.48285 1.66233,-2.74025 2.42345,-4.15038 2.85299,-4.69981 5.78432,-9.355326 8.56287,-14.095716 0.58987,-1.326243 -0.54461,-3.036423 -2.02253,-2.887529 -1.76985,-0.01406 -3.56971,-0.16021 -5.31926,0.149247 -1.58924,0.410245 -2.66889,1.787198 -3.31706,3.219181 -1.1046,1.967305 -2.2092,3.934609 -3.3138,5.901917 -0.41627,-2.416857 -0.66594,-4.874666 -1.24302,-7.255283 -0.59985,-1.544163 -2.4134,-2.156725 -3.94839,-2.045502 z" />
    <path
       style="fill:none;stroke:#808000;stroke-width:6.3;stroke-linecap:round;stroke-linejoin:round;stroke-dasharray:none;stroke-opacity:1"
       d="m 225.93428,27.912633 6.02414,-12.291472 6.93502,7.30338 7.41315,-16.3872377"
       id="path13751-5"
       sodipodi:nodetypes="cccc" />
  </g>
  <g
     inkscape:label="Layer 1"
     inkscape:groupmode="layer"
     id="layer1">
    <path
       style="fill:none;stroke:#000000;stroke-width:3;stroke-linecap:round;stroke-linejoin:round"
       d="M 161.52828,44.784917 221.99701,26.114839"
       id="path13558" />
    <path
       style="fill:none;stroke:#000000;stroke-width:1.5;stroke-linecap:round;stroke-linejoin:round;stroke-dasharray:none"
       d="m 182.71008,59.872267 60.46873,-18.67008"
       id="path13558-8" />
    <path
       style="fill:none;stroke:#000000;stroke-width:3;stroke-linecap:round;stroke-linejoin:round"
       d="m 178.78892,124.68271 56.91222,-14.87586"
       id="path13558-8-1"
       sodipodi:nodetypes="cc" />
    <path
       style="fill:none;stroke:#000000;stroke-width:3;stroke-linecap:round;stroke-linejoin:round"
       d="m 243.14247,41.571237 -7.3421,67.802013"
       id="path13614"
       sodipodi:nodetypes="cc" />
    <path
       style="fill:none;stroke:#000000;stroke-width:1.5;stroke-linecap:round;stroke-linejoin:round;stroke-dasharray:none"
       d="m 182.69886,60.035687 -3.77224,64.709583"
       id="path13614-9"
       sodipodi:nodetypes="cc" />
    <path
       style="fill:none;stroke:#000000;stroke-width:3;stroke-linecap:round;stroke-linejoin:round"
       d="m 161.5908,45.339547 2.37438,67.944043"
       id="path13614-9-8"
       sodipodi:nodetypes="cc" />
    <path
       style="fill:none;stroke:#000000;stroke-width:3;stroke-linecap:round;stroke-linejoin:round"
       d="m 222.09816,26.208209 20.6354,14.637618"
       id="path13618"
       sodipodi:nodetypes="cc" />
    <path
       style="fill:none;stroke:#000000;stroke-width:1.5;stroke-linecap:round;stroke-linejoin:round;stroke-dasharray:none"
       d="m 161.56741,45.047917 20.63539,14.63762"
       id="path13618-7"
       sodipodi:nodetypes="cc" />
    <path
       style="fill:none;stroke:#000000;stroke-width:3;stroke-linecap:round;stroke-linejoin:round"
       d="m 163.9893,113.37087 14.47464,11.00208"
       id="path13618-7-5"
       sodipodi:nodetypes="cc" />
    <path
       style="fill:none;stroke:#000000;stroke-width:1.5;stroke-linecap:round;stroke-linejoin:round;stroke-dasharray:none"
       d="m 161.7573,45.857777 7.42707,24.56652 13.32811,-10.27521"
       id="path13730"
       sodipodi:nodetypes="ccc" />
    <path
       style="fill:none;stroke:#000000;stroke-width:5;stroke-linecap:round;stroke-linejoin:round;stroke-dasharray:none"
       d="m 222.3158,35.666207 9.56987,-20.082708 6.93502,7.30338 7.41315,-16.3872395"
       id="path13751" />
    <ellipse
       style="fill:#000000;stroke:#000000;stroke-width:4.99999;stroke-linecap:round;stroke-linejoin:round;stroke-dasharray:none"
       id="path13845"
       ry="23.094173"
       rx="17.059275"
       cy="39.82991"
       cx="223.76462"
       transform="rotate(11.343048)" />
    <rect
       style="fill:#ffeeaa;stroke:#ffeeaa;stroke-width:1.5;stroke-linecap:round;stroke-linejoin:round;stroke-dasharray:none;stroke-opacity:1"
       id="rect14594"
       width="13.03644"
       height="29.536991"
       x="217.87254"
       y="-52.451805"
       transform="rotate(30.876597)" />
    <rect
       style="fill:#ffeeaa;stroke:#ffeeaa;stroke-width:1.5;stroke-linecap:round;stroke-linejoin:round;stroke-dasharray:none;stroke-opacity:1"
       id="rect14672"
       width="5.6746697"
       height="1.431662"
       x="221.46791"
       y="-54.658836"
       transform="rotate(30.876597)" />
    <rect
       style="fill:#ffeeaa;stroke:#ffeeaa;stroke-width:1.5;stroke-linecap:round;stroke-linejoin:round;stroke-dasharray:none;stroke-opacity:1"
       id="rect14672-7"
       width="5.6746697"
       height="1.431662"
       x="221.52934"
       y="-22.715584"
       transform="rotate(30.876597)" />
    <text
       xml:space="preserve"
       style="font-size:50.8px;fill:#000000;stroke-width:0.264583"
       x="31.696959"
       y="73.72364"
       id="text233"><tspan
         sodipodi:role="line"
         id="tspan231"
         style="font-size:50.8px;stroke-width:0.264583"
         x="31.696959"
         y="73.72364" /></text>
    <g
       aria-label="Joules"
       id="text237"
       style="font-size:50.8px;stroke-width:0.264583"
       transform="translate(-5.9947511,-9.7520016)">
      <path
         d="m 32.183583,81.633337 c -1.524,0 -2.6416,0.9144 -2.9464,2.4384 l -5.9436,29.667203 c -0.3048,1.524 -1.27,2.54 -2.794,2.54 h -4.4704 c -1.524,0 -2.3368,0.4064 -2.6416,1.9304 l -0.254,1.27 c -0.3048,1.524 0.3556,1.8796 1.8796,1.8796 h 6.7564 c 5.08,0 8.4836,-2.54 9.4996,-7.62 l 5.9436,-29.667203 c 0.3048,-1.524 -0.3556,-2.4384 -1.8796,-2.4384 z"
         style="font-style:oblique;font-family:PASTI;-inkscape-font-specification:'PASTI, Oblique'"
         id="path6674" />
      <path
         d="m 50.065109,81.633337 c -5.08,0 -8.5344,2.4384 -9.5504,7.5184 l -4.9276,24.739603 c -0.1524,0.762 -0.254,1.4732 -0.254,2.1336 0,3.6576 2.3876,5.3848 6.7564,5.3848 h 6.9596 c 5.08,0 8.534399,-2.4384 9.550399,-7.5184 l 4.9276,-24.739603 c 0.1016,-0.7112 0.2032,-1.4224 0.2032,-2.0828 0,-3.6576 -2.3876,-5.4356 -6.7056,-5.4356 z m -1.6256,8.0264 c 0.3048,-1.524 1.27,-2.8448 2.794,-2.8448 h 2.4892 c 1.524,0 1.9812,1.3208 1.6764,2.8448 l -4.7244,23.723603 c -0.3048,1.524 -1.3208,2.8448 -2.8448,2.8448 h -2.4892 c -1.524,0 -1.9304,-1.3208 -1.6256,-2.8448 z"
         style="font-style:oblique;font-family:PASTI;-inkscape-font-specification:'PASTI, Oblique'"
         id="path6676" />
      <path
         d="m 71.75666,81.633337 c -1.524,0 -2.5908,0.8636 -2.8956,2.3876 l -5.9436,29.870403 c -0.1524,0.762 -0.254,1.4732 -0.254,2.1336 0,3.6576 2.3876,5.334 6.7564,5.334 h 7.0104 c 5.08,0 8.5344,-2.3876 9.5504,-7.4676 l 5.9436,-29.870403 c 0.3048,-1.524 -0.3556,-2.3876 -1.8796,-2.3876 h -3.2004 c -1.524,0 -2.6416,0.8636 -2.9464,2.3876 l -5.842,29.362403 c -0.3048,1.524 -1.3716,2.8448 -2.8956,2.8448 h -2.4892 c -1.524,0 -1.9304,-1.3208 -1.6256,-2.8448 l 5.842,-29.362403 c 0.3048,-1.524 -0.4572,-2.3876 -1.9812,-2.3876 z"
         style="font-style:oblique;font-family:PASTI;-inkscape-font-specification:'PASTI, Oblique'"
         id="path6678" />
      <path
         d="m 99.087022,81.633337 c -1.524,0 -2.3876,1.1176 -2.6924,2.6416 l -6.858,34.442403 c -0.3048,1.524 0.5588,2.6416 2.0828,2.6416 h 12.191998 c 1.524,0 2.286,-0.4064 2.5908,-1.9304 l 0.254,-1.2192 c 0.3048,-1.524 -0.3048,-1.9304 -1.8288,-1.9304 h -4.7244 c -1.523998,0 -1.930398,-0.7112 -1.625598,-2.2352 l 5.943598,-29.768803 c 0.3048,-1.524 -0.1524,-2.6416 -1.6764,-2.6416 z"
         style="font-style:oblique;font-family:PASTI;-inkscape-font-specification:'PASTI, Oblique'"
         id="path6680" />
      <path
         d="m 119.66095,81.633337 c -1.524,0 -2.8956,1.1176 -3.2004,2.6416 l -6.858,34.391603 c -0.3048,1.524 0.5588,2.6924 2.0828,2.6924 h 12.0904 c 1.524,0 2.3876,-0.4064 2.6924,-1.9304 l 0.254,-1.27 c 0.3048,-1.524 -0.4064,-1.9304 -1.9304,-1.9304 h -4.6228 c -1.524,0 -1.9304,-0.7112 -1.6256,-2.2352 l 1.5748,-7.7216 c 0.3048,-1.524 1.1684,-2.1844 2.6924,-2.1844 h 2.794 c 1.524,0 2.032,-0.4572 2.3368,-1.9812 l 0.254,-1.2192 c 0.3048,-1.524003 -0.0508,-1.930403 -1.5748,-1.930403 h -2.794 c -1.524,0 -2.1336,-0.7112 -1.8288,-2.2352 l 1.5748,-7.7724 c 0.3048,-1.524 0.9652,-2.1844 2.4892,-2.1844 h 4.6228 c 1.524,0 2.3876,-0.4572 2.6924,-1.9812 l 0.254,-1.2192 c 0.3048,-1.524 -0.3556,-1.9304 -1.8796,-1.9304 z"
         style="font-style:oblique;font-family:PASTI;-inkscape-font-specification:'PASTI, Oblique'"
         id="path6682" />
      <path
         d="m 135.56134,89.304137 c -0.5588,2.6416 -1.016,4.5212 -1.016,6.0452 0,1.4224 0.4064,2.54 1.6256,3.6576 l 8.89,8.483603 c 0.9652,0.9652 1.27,1.778 1.27,2.7432 0,0.9144 -0.3048,1.9304 -0.6096,3.2004 l -0.1016,0.508 c -0.3048,1.524 -1.2192,2.286 -2.7432,2.286 h -2.4892 c -1.1176,0 -1.6764,-0.6096 -1.6764,-2.032 0,-0.4572 0.0508,-1.016 0.1524,-1.6764 0.3048,-1.524 0.0508,-3.2004 -1.4732,-3.2004 h -3.302 c -1.524,0 -2.8956,1.1684 -3.2004,2.6924 l -0.4064,1.9304 c -0.1016,0.6604 -0.1524,1.27 -0.1524,1.8796 0,3.81 2.8448,5.5372 7.2644,5.5372 h 6.0452 c 5.08,0 8.9408,-1.8288 9.9568,-6.9088 l 0.1524,-0.762 c 0.5588,-2.7432 1.1176,-4.572 1.1176,-6.096 0,-1.2192 -0.4064,-2.2352 -1.4732,-3.302 l -8.9408,-8.534403 c -1.0668,-0.9652 -1.4224,-1.8796 -1.4224,-2.9464 0,-0.9652 0.3048,-2.032 0.5588,-3.2512 l 0.1016,-0.508 c 0.3048,-1.524 1.2192,-2.286 2.7432,-2.286 h 2.4892 c 1.1176,0 1.7272,0.7112 1.7272,2.1336 0,0.4572 -0.0508,0.9652 -0.1524,1.5748 -0.3048,1.524 0.2032,3.2004 1.7272,3.2004 h 3.302 c 1.524,0 2.6416,-1.1684 2.9464,-2.6924 l 0.3556,-1.9304 c 0.1016,-0.6604 0.1524,-1.27 0.1524,-1.8288 0,-3.81 -2.8448,-5.588 -7.2644,-5.588 h -6.0452 c -5.08,0 -8.9916,1.8288 -10.0076,6.9088 z"
         style="font-style:oblique;font-family:PASTI;-inkscape-font-specification:'PASTI, Oblique'"
         id="path6684" />
    </g>
    <g
       aria-label="Box"
       id="text295"
       style="font-size:50.8px;stroke-width:0.264583"
       transform="translate(-5.9947511,-9.7520016)">
      <path
         d="m 275.3493,102.75166 c -0.6096,-0.254 -0.508,-0.762 0.2032,-1.016 2.54,-0.9144 5.1816,-3.302003 6.0452,-7.366003 l 1.016,-4.876799 c 0.1016,-0.5588 0.1524,-1.1176 0.1524,-1.6764 0,-3.81 -3.302,-5.4356 -7.7724,-5.4356 h -11.3284 c -1.524,0 -2.8956,1.1176 -3.2004,2.6416 l -6.858,34.442402 c -0.3048,1.524 0.5588,2.6416 2.0828,2.6416 h 11.3284 c 5.08,0 9.4488,-2.032 10.4648,-7.112 l 0.9652,-4.8768 c 0.1016,-0.6604 0.2032,-1.3208 0.2032,-1.9304 0,-2.8956 -1.524,-4.6736 -3.302,-5.4356 z m -7.5184,-3.048003 c -1.016,0 -2.1844,-0.508 -1.7272,-2.794 l 1.3716,-6.705599 c 0.4572,-2.286 1.6256,-2.6924 2.6416,-2.6924 h 0.9144 c 2.54,0 3.556,1.9304 3.048,4.4704 l -0.6604,3.149599 c -0.4572,2.286 -2.286,4.572 -4.826,4.572 -0.1016,0 -0.6604,0 -0.762,0 z m -0.254,5.130803 c 2.54,0 3.4544,2.2352 2.9972,4.5212 l -0.6096,3.1496 c -0.508,2.54 -2.286,4.4704 -4.826,4.4704 h -0.9144 c -1.016,0 -2.032,-0.4572 -1.5748,-2.7432 l 1.3208,-6.6548 c 0.4064,-2.2352 1.4732,-2.7432 3.6068,-2.7432 z"
         style="font-style:oblique;font-family:PASTI;-inkscape-font-specification:'PASTI, Oblique'"
         id="path6687" />
      <path
         d="m 296.12641,82.380858 c -5.08,0 -8.5344,2.4384 -9.5504,7.5184 l -4.9276,24.739602 c -0.1524,0.762 -0.254,1.4732 -0.254,2.1336 0,3.6576 2.3876,5.3848 6.7564,5.3848 h 6.9596 c 5.08,0 8.5344,-2.4384 9.5504,-7.5184 l 4.9276,-24.739602 c 0.1016,-0.7112 0.2032,-1.4224 0.2032,-2.0828 0,-3.6576 -2.3876,-5.4356 -6.7056,-5.4356 z m -1.6256,8.0264 c 0.3048,-1.524 1.27,-2.8448 2.794,-2.8448 h 2.4892 c 1.524,0 1.9812,1.3208 1.6764,2.8448 l -4.7244,23.723602 c -0.3048,1.524 -1.3208,2.8448 -2.8448,2.8448 h -2.4892 c -1.524,0 -1.9304,-1.3208 -1.6256,-2.8448 z"
         style="font-style:oblique;font-family:PASTI;-inkscape-font-specification:'PASTI, Oblique'"
         id="path6689" />
      <path
         d="m 315.0747,82.380858 c -1.524,0 -2.1844,1.2192 -2.0828,1.8796 l 3.6576,17.221202 c 0.1016,0.4064 0.1016,0.8636 -0.1016,1.2192 l -10.8204,17.78 c -0.1524,0.2032 -0.2032,0.4064 -0.2032,0.6096 0,0.5588 0.4572,1.016 1.5748,1.016 h 3.1496 c 2.032,0 3.048,-0.9652 3.4544,-1.6764 l 4.9276,-8.89 c 0.0508,-0.1524 0.2032,-0.3048 0.4064,-0.3048 0.254,0 0.3048,0.1524 0.3556,0.3048 l 1.3716,8.89 c 0.1016,0.7112 0.7112,1.6764 2.7432,1.6764 h 3.1496 c 1.524,0 2.2352,-0.9652 2.0828,-1.6256 l -3.7084,-17.78 c -0.1016,-0.3556 0.0508,-0.762 0.3048,-1.2192 l 10.5664,-17.272002 c 0.1016,-0.2032 0.254,-0.508 0.254,-0.8128 0,-0.508 -0.3556,-1.016 -1.27,-1.016 h -3.6576 c -2.032,0 -2.8956,1.0668 -3.3528,1.8796 l -4.8768,8.6868 c -0.1524,0.2032 -0.2032,0.3556 -0.3556,0.3556 -0.1524,0 -0.2032,-0.1524 -0.254,-0.3556 l -1.3716,-8.6868 c -0.1524,-0.8128 -0.762,-1.8796 -2.794,-1.8796 z"
         style="font-style:oblique;font-family:PASTI;-inkscape-font-specification:'PASTI, Oblique'"
         id="path6691" />
    </g>
  </g>
</svg>
