<?xml version="1.0" encoding="UTF-8" standalone="no"?>
<!-- Created with Inkscape (http://www.inkscape.org/) -->

<svg
   width="340mm"
   height="130mm"
   viewBox="0 0 340 130"
   version="1.1"
   id="svg12507"
   inkscape:version="1.2.1 (9c6d41e410, 2022-07-14)"
   sodipodi:docname="joulesbox_color.svg"
   xmlns:inkscape="http://www.inkscape.org/namespaces/inkscape"
   xmlns:sodipodi="http://sodipodi.sourceforge.net/DTD/sodipodi-0.dtd"
   xmlns="http://www.w3.org/2000/svg"
   xmlns:svg="http://www.w3.org/2000/svg">
  <sodipodi:namedview
     id="namedview12509"
     pagecolor="#ffffff"
     bordercolor="#000000"
     borderopacity="0.25"
     inkscape:showpageshadow="2"
     inkscape:pageopacity="0.0"
     inkscape:pagecheckerboard="0"
     inkscape:deskcolor="#d1d1d1"
     inkscape:document-units="mm"
     showgrid="false"
     inkscape:zoom="0.77593294"
     inkscape:cx="704.95783"
     inkscape:cy="390.49766"
     inkscape:window-width="1860"
     inkscape:window-height="1011"
     inkscape:window-x="60"
     inkscape:window-y="32"
     inkscape:window-maximized="1"
     inkscape:current-layer="layer1" />
  <defs
     id="defs12504" />
  <g
     inkscape:groupmode="layer"
     id="layer2"
     inkscape:label="Layer 2">
    <path
       style="fill:#bfd4ea;fill-opacity:1;stroke:#578eaa;stroke-width:0.264583;stroke-opacity:1"
       d="m 162.40818,44.673559 60.26227,-18.374098 21.67722,17.039847 -9.05461,66.944882 -55.61711,14.03998 -16.44415,-11.45897 z"
       id="path2059" />
  </g>
  <g
     inkscape:label="Layer 1"
     inkscape:groupmode="layer"
     id="layer1">
    <path
       style="fill:none;stroke:#000000;stroke-width:3;stroke-linecap:round;stroke-linejoin:round"
       d="M 161.52828,44.784917 221.99701,26.114839"
       id="path13558" />
    <path
       style="fill:none;stroke:#000000;stroke-width:1.5;stroke-linecap:round;stroke-linejoin:round;stroke-dasharray:none"
       d="m 182.71008,59.872267 60.46873,-18.67008"
       id="path13558-8" />
    <path
       style="fill:none;stroke:#000000;stroke-width:3;stroke-linecap:round;stroke-linejoin:round"
       d="m 178.78892,124.68271 56.91222,-14.87586"
       id="path13558-8-1"
       sodipodi:nodetypes="cc" />
    <path
       style="fill:none;stroke:#000000;stroke-width:3;stroke-linecap:round;stroke-linejoin:round"
       d="m 243.14247,41.571237 -7.3421,67.802013"
       id="path13614"
       sodipodi:nodetypes="cc" />
    <path
       style="fill:none;stroke:#000000;stroke-width:1.5;stroke-linecap:round;stroke-linejoin:round;stroke-dasharray:none"
       d="m 182.69886,60.035687 -3.77224,64.709583"
       id="path13614-9"
       sodipodi:nodetypes="cc" />
    <path
       style="fill:none;stroke:#000000;stroke-width:3;stroke-linecap:round;stroke-linejoin:round"
       d="m 161.5908,45.339547 2.37438,67.944043"
       id="path13614-9-8"
       sodipodi:nodetypes="cc" />
    <path
       style="fill:none;stroke:#000000;stroke-width:3;stroke-linecap:round;stroke-linejoin:round"
       d="m 222.09816,26.208209 20.6354,14.637618"
       id="path13618"
       sodipodi:nodetypes="cc" />
    <path
       style="fill:none;stroke:#000000;stroke-width:1.5;stroke-linecap:round;stroke-linejoin:round;stroke-dasharray:none"
       d="m 161.56741,45.047917 20.63539,14.63762"
       id="path13618-7"
       sodipodi:nodetypes="cc" />
    <path
       style="fill:none;stroke:#000000;stroke-width:3;stroke-linecap:round;stroke-linejoin:round"
       d="m 163.9893,113.37087 14.47464,11.00208"
       id="path13618-7-5"
       sodipodi:nodetypes="cc" />
    <path
       style="fill:none;stroke:#000000;stroke-width:1.5;stroke-linecap:round;stroke-linejoin:round;stroke-dasharray:none"
       d="m 161.7573,45.857777 7.42707,24.56652 13.32811,-10.27521"
       id="path13730"
       sodipodi:nodetypes="ccc" />
    <path
       style="fill:none;stroke:#000000;stroke-width:5;stroke-linecap:round;stroke-linejoin:round;stroke-dasharray:none"
       d="m 222.3158,35.666207 9.56987,-20.082708 6.93502,7.30338 7.41315,-16.3872395"
       id="path13751" />
    <ellipse
       style="fill:#000000;stroke:#000000;stroke-width:4.99999;stroke-linecap:round;stroke-linejoin:round;stroke-dasharray:none"
       id="path13845"
       ry="23.094173"
       rx="17.059275"
       cy="39.82991"
       cx="223.76462"
       transform="rotate(11.343048)" />
    <rect
       style="fill:#ffeeaa;stroke:#ffeeaa;stroke-width:1.5;stroke-linecap:round;stroke-linejoin:round;stroke-dasharray:none;stroke-opacity:1"
       id="rect14594"
       width="13.03644"
       height="29.536991"
       x="217.87254"
       y="-52.451805"
       transform="rotate(30.876597)" />
    <rect
       style="fill:#ffeeaa;stroke:#ffeeaa;stroke-width:1.5;stroke-linecap:round;stroke-linejoin:round;stroke-dasharray:none;stroke-opacity:1"
       id="rect14672"
       width="5.6746697"
       height="1.431662"
       x="221.46791"
       y="-54.658836"
       transform="rotate(30.876597)" />
    <rect
       style="fill:#ffeeaa;stroke:#ffeeaa;stroke-width:1.5;stroke-linecap:round;stroke-linejoin:round;stroke-dasharray:none;stroke-opacity:1"
       id="rect14672-7"
       width="5.6746697"
       height="1.431662"
       x="221.52934"
       y="-22.715584"
       transform="rotate(30.876597)" />
    <text
       xml:space="preserve"
       style="font-size:50.8px;fill:#000000;stroke-width:0.264583"
       x="31.696959"
       y="73.72364"
       id="text233"><tspan
         sodipodi:role="line"
         id="tspan231"
         style="font-size:50.8px;stroke-width:0.264583"
         x="31.696959"
         y="73.72364" /></text>
    <g
       aria-label="Joules"
       id="text237"
       style="font-size:50.8px;stroke-width:0.264583"
       transform="translate(-5.9947511,-9.7520016)">
      <path
         d="m 32.183583,81.633337 c -1.524,0 -2.6416,0.9144 -2.9464,2.4384 l -5.9436,29.667203 c -0.3048,1.524 -1.27,2.54 -2.794,2.54 h -4.4704 c -1.524,0 -2.3368,0.4064 -2.6416,1.9304 l -0.254,1.27 c -0.3048,1.524 0.3556,1.8796 1.8796,1.8796 h 6.7564 c 5.08,0 8.4836,-2.54 9.4996,-7.62 l 5.9436,-29.667203 c 0.3048,-1.524 -0.3556,-2.4384 -1.8796,-2.4384 z"
         style="font-style:oblique;font-family:PASTI;-inkscape-font-specification:'PASTI, Oblique'"
         id="path6674" />
      <path
         d="m 50.065109,81.633337 c -5.08,0 -8.5344,2.4384 -9.5504,7.5184 l -4.9276,24.739603 c -0.1524,0.762 -0.254,1.4732 -0.254,2.1336 0,3.6576 2.3876,5.3848 6.7564,5.3848 h 6.9596 c 5.08,0 8.534399,-2.4384 9.550399,-7.5184 l 4.9276,-24.739603 c 0.1016,-0.7112 0.2032,-1.4224 0.2032,-2.0828 0,-3.6576 -2.3876,-5.4356 -6.7056,-5.4356 z m -1.6256,8.0264 c 0.3048,-1.524 1.27,-2.8448 2.794,-2.8448 h 2.4892 c 1.524,0 1.9812,1.3208 1.6764,2.8448 l -4.7244,23.723603 c -0.3048,1.524 -1.3208,2.8448 -2.8448,2.8448 h -2.4892 c -1.524,0 -1.9304,-1.3208 -1.6256,-2.8448 z"
         style="font-style:oblique;font-family:PASTI;-inkscape-font-specification:'PASTI, Oblique'"
         id="path6676" />
      <path
         d="m 71.75666,81.633337 c -1.524,0 -2.5908,0.8636 -2.8956,2.3876 l -5.9436,29.870403 c -0.1524,0.762 -0.254,1.4732 -0.254,2.1336 0,3.6576 2.3876,5.334 6.7564,5.334 h 7.0104 c 5.08,0 8.5344,-2.3876 9.5504,-7.4676 l 5.9436,-29.870403 c 0.3048,-1.524 -0.3556,-2.3876 -1.8796,-2.3876 h -3.2004 c -1.524,0 -2.6416,0.8636 -2.9464,2.3876 l -5.842,29.362403 c -0.3048,1.524 -1.3716,2.8448 -2.8956,2.8448 h -2.4892 c -1.524,0 -1.9304,-1.3208 -1.6256,-2.8448 l 5.842,-29.362403 c 0.3048,-1.524 -0.4572,-2.3876 -1.9812,-2.3876 z"
         style="font-style:oblique;font-family:PASTI;-inkscape-font-specification:'PASTI, Oblique'"
         id="path6678" />
      <path
         d="m 99.087022,81.633337 c -1.524,0 -2.3876,1.1176 -2.6924,2.6416 l -6.858,34.442403 c -0.3048,1.524 0.5588,2.6416 2.0828,2.6416 h 12.191998 c 1.524,0 2.286,-0.4064 2.5908,-1.9304 l 0.254,-1.2192 c 0.3048,-1.524 -0.3048,-1.9304 -1.8288,-1.9304 h -4.7244 c -1.523998,0 -1.930398,-0.7112 -1.625598,-2.2352 l 5.943598,-29.768803 c 0.3048,-1.524 -0.1524,-2.6416 -1.6764,-2.6416 z"
         style="font-style:oblique;font-family:PASTI;-inkscape-font-specification:'PASTI, Oblique'"
         id="path6680" />
      <path
         d="m 119.66095,81.633337 c -1.524,0 -2.8956,1.1176 -3.2004,2.6416 l -6.858,34.391603 c -0.3048,1.524 0.5588,2.6924 2.0828,2.6924 h 12.0904 c 1.524,0 2.3876,-0.4064 2.6924,-1.9304 l 0.254,-1.27 c 0.3048,-1.524 -0.4064,-1.9304 -1.9304,-1.9304 h -4.6228 c -1.524,0 -1.9304,-0.7112 -1.6256,-2.2352 l 1.5748,-7.7216 c 0.3048,-1.524 1.1684,-2.1844 2.6924,-2.1844 h 2.794 c 1.524,0 2.032,-0.4572 2.3368,-1.9812 l 0.254,-1.2192 c 0.3048,-1.524003 -0.0508,-1.930403 -1.5748,-1.930403 h -2.794 c -1.524,0 -2.1336,-0.7112 -1.8288,-2.2352 l 1.5748,-7.7724 c 0.3048,-1.524 0.9652,-2.1844 2.4892,-2.1844 h 4.6228 c 1.524,0 2.3876,-0.4572 2.6924,-1.9812 l 0.254,-1.2192 c 0.3048,-1.524 -0.3556,-1.9304 -1.8796,-1.9304 z"
         style="font-style:oblique;font-family:PASTI;-inkscape-font-specification:'PASTI, Oblique'"
         id="path6682" />
      <path
         d="m 135.56134,89.304137 c -0.5588,2.6416 -1.016,4.5212 -1.016,6.0452 0,1.4224 0.4064,2.54 1.6256,3.6576 l 8.89,8.483603 c 0.9652,0.9652 1.27,1.778 1.27,2.7432 0,0.9144 -0.3048,1.9304 -0.6096,3.2004 l -0.1016,0.508 c -0.3048,1.524 -1.2192,2.286 -2.7432,2.286 h -2.4892 c -1.1176,0 -1.6764,-0.6096 -1.6764,-2.032 0,-0.4572 0.0508,-1.016 0.1524,-1.6764 0.3048,-1.524 0.0508,-3.2004 -1.4732,-3.2004 h -3.302 c -1.524,0 -2.8956,1.1684 -3.2004,2.6924 l -0.4064,1.9304 c -0.1016,0.6604 -0.1524,1.27 -0.1524,1.8796 0,3.81 2.8448,5.5372 7.2644,5.5372 h 6.0452 c 5.08,0 8.9408,-1.8288 9.9568,-6.9088 l 0.1524,-0.762 c 0.5588,-2.7432 1.1176,-4.572 1.1176,-6.096 0,-1.2192 -0.4064,-2.2352 -1.4732,-3.302 l -8.9408,-8.534403 c -1.0668,-0.9652 -1.4224,-1.8796 -1.4224,-2.9464 0,-0.9652 0.3048,-2.032 0.5588,-3.2512 l 0.1016,-0.508 c 0.3048,-1.524 1.2192,-2.286 2.7432,-2.286 h 2.4892 c 1.1176,0 1.7272,0.7112 1.7272,2.1336 0,0.4572 -0.0508,0.9652 -0.1524,1.5748 -0.3048,1.524 0.2032,3.2004 1.7272,3.2004 h 3.302 c 1.524,0 2.6416,-1.1684 2.9464,-2.6924 l 0.3556,-1.9304 c 0.1016,-0.6604 0.1524,-1.27 0.1524,-1.8288 0,-3.81 -2.8448,-5.588 -7.2644,-5.588 h -6.0452 c -5.08,0 -8.9916,1.8288 -10.0076,6.9088 z"
         style="font-style:oblique;font-family:PASTI;-inkscape-font-specification:'PASTI, Oblique'"
         id="path6684" />
    </g>
    <g
       aria-label="Box"
       id="text295"
       style="font-size:50.8px;stroke-width:0.264583"
       transform="translate(-5.9947511,-9.7520016)">
      <path
         d="m 275.3493,102.75166 c -0.6096,-0.254 -0.508,-0.762 0.2032,-1.016 2.54,-0.9144 5.1816,-3.302003 6.0452,-7.366003 l 1.016,-4.876799 c 0.1016,-0.5588 0.1524,-1.1176 0.1524,-1.6764 0,-3.81 -3.302,-5.4356 -7.7724,-5.4356 h -11.3284 c -1.524,0 -2.8956,1.1176 -3.2004,2.6416 l -6.858,34.442402 c -0.3048,1.524 0.5588,2.6416 2.0828,2.6416 h 11.3284 c 5.08,0 9.4488,-2.032 10.4648,-7.112 l 0.9652,-4.8768 c 0.1016,-0.6604 0.2032,-1.3208 0.2032,-1.9304 0,-2.8956 -1.524,-4.6736 -3.302,-5.4356 z m -7.5184,-3.048003 c -1.016,0 -2.1844,-0.508 -1.7272,-2.794 l 1.3716,-6.705599 c 0.4572,-2.286 1.6256,-2.6924 2.6416,-2.6924 h 0.9144 c 2.54,0 3.556,1.9304 3.048,4.4704 l -0.6604,3.149599 c -0.4572,2.286 -2.286,4.572 -4.826,4.572 -0.1016,0 -0.6604,0 -0.762,0 z m -0.254,5.130803 c 2.54,0 3.4544,2.2352 2.9972,4.5212 l -0.6096,3.1496 c -0.508,2.54 -2.286,4.4704 -4.826,4.4704 h -0.9144 c -1.016,0 -2.032,-0.4572 -1.5748,-2.7432 l 1.3208,-6.6548 c 0.4064,-2.2352 1.4732,-2.7432 3.6068,-2.7432 z"
         style="font-style:oblique;font-family:PASTI;-inkscape-font-specification:'PASTI, Oblique'"
         id="path6687" />
      <path
         d="m 296.12641,82.380858 c -5.08,0 -8.5344,2.4384 -9.5504,7.5184 l -4.9276,24.739602 c -0.1524,0.762 -0.254,1.4732 -0.254,2.1336 0,3.6576 2.3876,5.3848 6.7564,5.3848 h 6.9596 c 5.08,0 8.5344,-2.4384 9.5504,-7.5184 l 4.9276,-24.739602 c 0.1016,-0.7112 0.2032,-1.4224 0.2032,-2.0828 0,-3.6576 -2.3876,-5.4356 -6.7056,-5.4356 z m -1.6256,8.0264 c 0.3048,-1.524 1.27,-2.8448 2.794,-2.8448 h 2.4892 c 1.524,0 1.9812,1.3208 1.6764,2.8448 l -4.7244,23.723602 c -0.3048,1.524 -1.3208,2.8448 -2.8448,2.8448 h -2.4892 c -1.524,0 -1.9304,-1.3208 -1.6256,-2.8448 z"
         style="font-style:oblique;font-family:PASTI;-inkscape-font-specification:'PASTI, Oblique'"
         id="path6689" />
      <path
         d="m 315.0747,82.380858 c -1.524,0 -2.1844,1.2192 -2.0828,1.8796 l 3.6576,17.221202 c 0.1016,0.4064 0.1016,0.8636 -0.1016,1.2192 l -10.8204,17.78 c -0.1524,0.2032 -0.2032,0.4064 -0.2032,0.6096 0,0.5588 0.4572,1.016 1.5748,1.016 h 3.1496 c 2.032,0 3.048,-0.9652 3.4544,-1.6764 l 4.9276,-8.89 c 0.0508,-0.1524 0.2032,-0.3048 0.4064,-0.3048 0.254,0 0.3048,0.1524 0.3556,0.3048 l 1.3716,8.89 c 0.1016,0.7112 0.7112,1.6764 2.7432,1.6764 h 3.1496 c 1.524,0 2.2352,-0.9652 2.0828,-1.6256 l -3.7084,-17.78 c -0.1016,-0.3556 0.0508,-0.762 0.3048,-1.2192 l 10.5664,-17.272002 c 0.1016,-0.2032 0.254,-0.508 0.254,-0.8128 0,-0.508 -0.3556,-1.016 -1.27,-1.016 h -3.6576 c -2.032,0 -2.8956,1.0668 -3.3528,1.8796 l -4.8768,8.6868 c -0.1524,0.2032 -0.2032,0.3556 -0.3556,0.3556 -0.1524,0 -0.2032,-0.1524 -0.254,-0.3556 l -1.3716,-8.6868 c -0.1524,-0.8128 -0.762,-1.8796 -2.794,-1.8796 z"
         style="font-style:oblique;font-family:PASTI;-inkscape-font-specification:'PASTI, Oblique'"
         id="path6691" />
    </g>
  </g>
</svg>
